<svg width="25" height="28" viewBox="0 0 25 28" fill="none" xmlns="http://www.w3.org/2000/svg">
<path d="M23.5418 27.3334H17.0679C16.8466 27.3333 16.6286 27.2791 16.4331 27.1754C16.2375 27.0717 16.0704 26.9217 15.9463 26.7386L0 3.1195V1.83661C0 1.52635 0.123382 1.22878 0.343015 1.00939C0.562649 0.79 0.860537 0.666749 1.17115 0.666749H6.17541C6.39685 0.66646 6.61498 0.720559 6.81057 0.824284C7.00616 0.928009 7.17322 1.07818 7.29705 1.26157L24.1387 26.2031C24.2137 26.3115 24.2575 26.4383 24.2654 26.5698C24.2733 26.7014 24.2449 26.8325 24.1833 26.949C24.1218 27.0656 24.0295 27.163 23.9164 27.2308C23.8032 27.2986 23.6737 27.334 23.5418 27.3334Z" fill="url(#paint0_linear_6451_75715)"/>
<path d="M6.174 0.666748H1.17115C0.524341 0.666748 0 1.19051 0 1.83661V26.1579C0 26.804 0.524341 27.3278 1.17115 27.3278H6.174C6.8208 27.3278 7.34515 26.804 7.34515 26.1579V1.83661C7.34515 1.19051 6.8208 0.666748 6.174 0.666748Z" fill="url(#paint1_linear_6451_75715)"/>
<path d="M24.1387 1.78858L7.28998 26.7329C7.16629 26.9161 6.99945 27.0662 6.80412 27.1699C6.6088 27.2736 6.39096 27.3278 6.16975 27.3278H1.17115C0.860537 27.3278 0.562649 27.2045 0.343015 26.9851C0.123382 26.7657 0 26.4682 0 26.1579V24.8708L15.9421 1.26157C16.0658 1.07838 16.2326 0.928332 16.4279 0.824617C16.6232 0.720902 16.8411 0.666693 17.0623 0.66675H23.5404C23.6712 0.666424 23.7997 0.701721 23.912 0.768853C24.0242 0.835985 24.1161 0.932413 24.1776 1.04777C24.2391 1.16312 24.268 1.29304 24.2611 1.42357C24.2543 1.55409 24.212 1.68028 24.1387 1.78858Z" fill="url(#paint2_linear_6451_75715)"/>
<defs>
<linearGradient id="paint0_linear_6451_75715" x1="20.324" y1="27.462" x2="3.46753" y2="1.26731" gradientUnits="userSpaceOnUse">
<stop offset="0.15" stop-color="#0C6070"/>
<stop offset="0.51" stop-color="#096B6E"/>
<stop offset="0.99" stop-color="#07756D"/>
</linearGradient>
<linearGradient id="paint1_linear_6451_75715" x1="3.67328" y1="0.800971" x2="3.67328" y2="26.5577" gradientUnits="userSpaceOnUse">
<stop offset="0.14" stop-color="#07756D"/>
<stop offset="0.35" stop-color="#058977"/>
<stop offset="0.76" stop-color="#01BB8F"/>
<stop offset="0.85" stop-color="#00C795"/>
</linearGradient>
<linearGradient id="paint2_linear_6451_75715" x1="3.10468" y1="26.9661" x2="20.1026" y2="1.05228" gradientUnits="userSpaceOnUse">
<stop stop-color="#00C795"/>
<stop offset="0.19" stop-color="#02CB94"/>
<stop offset="0.39" stop-color="#09D892"/>
<stop offset="0.59" stop-color="#13EC8F"/>
<stop offset="0.66" stop-color="#18F58E"/>
</linearGradient>
</defs>
</svg>
