<?xml version="1.0" encoding="UTF-8"?>
<svg id="Layer_2" data-name="Layer 2" xmlns="http://www.w3.org/2000/svg" viewBox="0 0 140.89 40.37">
  <defs>
    <style>
      .cls-1 {
        fill: #5ebe79;
      }

      .cls-1, .cls-2, .cls-3, .cls-4 {
        stroke-width: 0px;
      }

      .cls-2 {
        fill: #0c8177;
      }

      .cls-3 {
        fill: #0f6170;
      }

      .cls-4 {
        fill: #121921;
      }
    </style>
  </defs>
  <g id="Layer_1-2" data-name="Layer 1">
    <g>
      <path class="cls-4" d="M81.03,0h-9.03l-15.16,16.42V0h-6.92v39.64h6.92v-16.55l15.74,16.55h9.21l-18.85-19.81L81.03,0Z"/>
      <path class="cls-4" d="M102.21,14.67c-.83-1.13-1.93-2.05-3.22-2.71-1.74-.88-3.7-1.33-5.67-1.32-1.85,0-3.69.32-5.41.97-1.69.64-3.22,1.61-4.49,2.85-1.32,1.31-2.34,2.85-3.01,4.54-.72,1.77-1.08,3.81-1.08,6.08v.86c0,2.3.37,4.36,1.08,6.13.66,1.69,1.68,3.23,3.01,4.54,1.27,1.23,2.8,2.19,4.5,2.82,1.76.63,3.62.95,5.5.94,1.94,0,3.84-.48,5.53-1.38,1.31-.7,2.42-1.68,3.26-2.86v3.5h6.11V11.4h-6.11v3.26ZM102.21,25.84c.02,1.27-.2,2.54-.63,3.75-.39,1.04-.97,2-1.73,2.85-.72.77-1.61,1.38-2.61,1.79-1.06.43-2.21.65-3.36.63-2.45,0-4.46-.78-5.99-2.3-1.55-1.56-2.34-3.78-2.34-6.6v-.86c0-1.26.21-2.51.65-3.7.38-1.03.97-1.98,1.74-2.79.73-.76,1.62-1.36,2.61-1.78,1.05-.43,2.18-.65,3.33-.63,1.13-.01,2.26.21,3.29.65,1.01.43,1.91,1.06,2.65,1.84.77.83,1.37,1.78,1.75,2.82.43,1.19.65,2.44.63,3.7v.64Z"/>
      <path class="cls-4" d="M123.76,11.41v-3.63c0-.78.27-.84.72-.84h4.63V1.51h-6.23c-1.53,0-2.79.48-3.77,1.42-.97.94-1.46,2.12-1.46,3.55v4.92h-6.26v5.42h6.26v22.8h6.11v-22.8h10.09v22.8h6.11V11.41h-16.2Z"/>
      <path class="cls-4" d="M136.84,8.42c.53,0,1.06-.09,1.55-.28.49-.19.94-.48,1.31-.83.38-.35.68-.77.89-1.23.2-.46.3-.96.3-1.46,0-.5-.09-1-.3-1.46-.2-.46-.51-.88-.89-1.23-.37-.36-.82-.64-1.31-.83-.49-.19-1.02-.29-1.55-.28-.53,0-1.06.09-1.55.28-.49.19-.94.48-1.31.83-.38.35-.69.77-.89,1.23-.2.46-.3.96-.3,1.46,0,.5.09,1,.3,1.46.2.46.51.88.89,1.23.37.36.82.64,1.31.84.49.19,1.02.29,1.55.28Z"/>
      <path class="cls-3" d="M37.18,39.64h-10.22c-.38,0-.75-.1-1.07-.27-.28-.15-.52-.36-.7-.61L0,3.65v-1.91c0-.45.19-.89.52-1.21.17-.17.38-.3.61-.39C1.36.05,1.61,0,1.86,0h7.9c.39,0,.77.1,1.1.29.27.15.5.35.67.6l26.6,37.08c.12.16.18.35.2.54.01.19-.03.39-.13.56-.1.17-.24.32-.42.42-.18.1-.38.15-.59.15Z"/>
      <path class="cls-2" d="M1.86,0h7.89c.47,0,.92.17,1.26.46.19.16.34.36.44.58.1.22.15.46.15.7v36.15c0,.23-.05.45-.14.67-.09.21-.23.4-.4.56-.17.16-.38.29-.6.38-.22.09-.47.13-.71.13H1.86c-.26,0-.51-.05-.75-.15-.24-.1-.45-.24-.62-.42-.31-.32-.48-.74-.48-1.17V1.74c0-.45.19-.89.52-1.21.17-.17.38-.3.61-.39C1.36.05,1.61,0,1.86,0Z"/>
      <path class="cls-1" d="M38.12,1.67L11.52,38.75c-.17.24-.4.44-.66.59-.34.19-.72.29-1.11.29H1.86c-.24,0-.49-.04-.71-.13-.23-.09-.43-.22-.6-.38-.17-.16-.31-.36-.4-.57-.09-.21-.14-.44-.14-.67v-1.91L25.17.89c.18-.26.43-.47.71-.62C26.21.09,26.57,0,26.94,0h10.23c.2,0,.39.05.56.14.17.09.32.22.42.39.11.17.17.37.16.58,0,.2-.07.4-.19.57Z"/>
    </g>
  </g>
</svg>